<svg height="1368" viewBox="98.07 156 667.95 467.86" width="2500" xmlns="http://www.w3.org/2000/svg"><g clip-rule="evenodd" fill="#1c1a19" fill-rule="evenodd"><path d="m715.04 623.86c-31.55 0-50.3-16.74-51.41-40.53h29.65c0 7.4 4.46 18.37 23.6 18.73 12.77 0 18.84-7.84 18.84-13.63-.81-9.42-12.04-10.17-24.14-12.12-11.96-2-22.08-4.25-29.57-8.17-9.4-5.1-15.81-16.05-15.81-28.44 0-21.1 17.69-37.88 46.95-37.88 28.49 0 46.54 15.59 48.42 38.58h-28.49c-.42-6.17-1.49-16-18.47-16-11.28 0-18.72 2.4-19.46 10.53 0 12.12 23.62 11.32 42.03 16.42 17.65 4.62 28.84 15.97 28.84 31.97-.02 29.23-22.93 40.54-50.98 40.54zm-544.92-195.69 98.66-58.91 52.18 93.58h-131.7zm192.86 74.84h28.22v118.12h-28.22zm-237.86 59.62c0 18.33 14.96 33.52 32.65 33.52 17.99 0 33.02-15.18 33.02-33.52 0-18.33-15.02-33.94-33.02-33.94-17.69 0-32.65 15.61-32.65 33.94zm31.82 61.23c-32.21 0-58.87-27.71-58.87-61.23 0-33.94 26.66-60.81 58.87-60.81 12.44 0 24.06 3.51 33.84 10.57v-9.48h27.73v118.23h-27.73v-7.81c-9.39 6.61-21.05 10.53-33.84 10.53zm379.06-161.02-137.32-247.55 98.66-59.29 170.82 306.84zm-280.69 99.79c0 18.33 15 33.52 33.03 33.52 17.65 0 32.62-15.18 32.62-33.52 0-18.33-14.97-33.94-32.62-33.94-18.03 0-33.03 15.61-33.03 33.94zm32.31 61.23c-32.64 0-59.3-27.71-59.3-61.23 0-33.94 26.66-60.81 59.3-60.81 12.36 0 23.64 3.51 33.34 10.57v-49.55h28.15v158.3h-28.15v-7.81c-9.71 6.61-20.98 10.53-33.34 10.53zm-2.31-301.03 99.09-58.87 110.7 198.88h-103.9v29.2h-28.22v-29.2zm274.37 239.8c0 18.33 14.94 33.52 32.63 33.52s32.25-15.18 32.25-33.52c0-18.33-14.56-33.94-32.25-33.94s-32.63 15.61-32.63 33.94zm31.52 61.23c-32.3 0-58.93-27.71-58.93-61.23 0-33.94 26.63-60.81 58.93-60.81 12.35 0 23.94 3.51 33.36 10.57v-9.48h28.18v118.23h-28.18v-7.81c-9.42 6.61-20.63 10.53-33.36 10.53zm0 0"/><path d="m429.82 562.59c0 18.38 14.94 33.56 32.25 33.56 18.07 0 32.96-15.18 32.96-33.56 0-18.23-14.88-33.86-32.96-33.86-17.31-.01-32.25 15.63-32.25 33.86zm65.2-99.75h27.85v158.3h-27.85v-7.81c-9.28 6.61-20.94 10.53-33.7 10.53-32.27 0-58.93-27.71-58.93-61.27 0-33.86 26.66-60.77 58.93-60.77 12.77 0 24.04 3.51 33.7 10.47zm0 0"/></g></svg>